<?xml version="1.0" encoding="utf-8"?>

<!-- License Agreement at http://iconmonstr.com/license/ -->

<!DOCTYPE svg PUBLIC "-//W3C//DTD SVG 1.1//EN" "http://www.w3.org/Graphics/SVG/1.1/DTD/svg11.dtd">
<svg version="1.1" xmlns="http://www.w3.org/2000/svg" xmlns:xlink="http://www.w3.org/1999/xlink" x="0px" y="0px"
	 width="512px" height="512px" fill="#590010" viewBox="0 0 512 512" enable-background="new 0 0 512 512" xml:space="preserve">
<path id="light-bulb-6-icon" d="M299.823,364.41h-87.647c-6.143,0-11.123,4.98-11.123,11.123s4.98,11.122,11.123,11.122h87.648
	c6.143,0,11.123-4.979,11.123-11.122S305.967,364.41,299.823,364.41z M297.822,401.443h-83.645c-6.143,0-11.123,4.98-11.123,11.123
	s4.98,11.123,11.123,11.123h83.646c6.142,0,11.122-4.98,11.122-11.123S303.965,401.443,297.822,401.443z M214.75,437.961
	C236.406,457.979,238.636,462,247.28,462h16.65c8.45,0,10.532-3.727,33.319-24.039H214.75z M382.621,171.454
	c0,75.31-64.767,117.514-64.767,176.943h-29.493c0.025-73.246,64.232-111.827,64.232-176.943c0-121.891-193.188-122.081-193.188,0
	c0,65.057,63.094,101.976,64.558,176.943h-29.818c0-59.43-64.767-101.634-64.767-176.943
	C129.379,9.598,382.621,9.433,382.621,171.454z M313.426,140.543c-8.405,4.93-14.656,12.246-18.203,22.531
	c-9.531,27.631,6.417,50.259-4.042,76.084c-6.086,15.027-18.931,22.841-32.418,24.208c-2.573,26.637,1.017,63.554,9.356,85.031
	h-19.127c-9.967-39.868-4.587-110.58,17.601-150.45c-13.513,10.344-26.857,38.701-30.722,61.235
	C188.855,230.978,224.556,140.543,313.426,140.543z"/>
</svg>
